<svg xmlns="http://www.w3.org/2000/svg" viewBox="0 0 84 84">
  <defs>
    <linearGradient id="g" x1="0" y1="0" x2="1" y2="1">
      <stop offset="0%" stop-color="#E0E6EC" stop-opacity="0.95"/>
      <stop offset="100%" stop-color="#8A94A0" stop-opacity="0.85"/>
    </linearGradient>
  </defs>
  <g stroke="#C8D1DA" stroke-width="1.2" fill="none">
    <polygon points="42,33 49.794,37.5 49.794,46.5 42,51 34.206,46.5 34.206,37.5" fill="url(#g)" stroke-width="0.8"/>
    <polygon points="59.588,37.5 67.382,42 67.382,51 59.588,55.5 51.794,51 51.794,42"/>
    <polygon points="49.794,54 57.588,58.5 57.588,67.5 49.794,72 42,67.5 42,58.5"/>
    <polygon points="32.206,54 40,58.5 40,67.5 32.206,72 24.412,67.5 24.412,58.5"/>
    <polygon points="22.412,37.5 30.206,42 30.206,51 22.412,55.5 14.618,51 14.618,42"/>
    <polygon points="32.206,21 40,25.5 40,34.5 32.206,39 24.412,34.5 24.412,25.5"/>
    <polygon points="49.794,21 57.588,25.5 57.588,34.5 49.794,39 42,34.5 42,25.5"/>
  </g>
</svg>
